<svg xmlns="http://www.w3.org/2000/svg" width="866" height="472" viewBox="0 0 866 472" version="1.1"><path d="M 421.500 40.045 C 399.805 44.523, 383.444 58.827, 376.371 79.500 C 371.105 94.892, 373.024 113.392, 381.313 127.130 L 384.710 132.761 377.605 128.931 C 368.260 123.893, 360.569 121.997, 349.540 122.012 C 333.093 122.033, 319.433 127.636, 308.034 139.034 C 296.766 150.303, 291.034 164.110, 291.012 180.040 C 290.976 205.557, 306.182 227.157, 330.568 236.230 C 335.520 238.073, 338.565 238.437, 349 238.436 C 362.840 238.435, 369.837 236.689, 379.351 230.864 C 382.019 229.231, 384.025 228.256, 383.809 228.697 C 383.593 229.139, 381.743 232.891, 379.699 237.035 C 370.830 255.015, 371.166 272.968, 380.714 291.238 C 387.474 304.173, 402.414 315.898, 417.500 320.105 C 424.254 321.989, 441.069 321.801, 447.630 319.768 C 461.702 315.409, 472.778 307.356, 480.677 295.743 C 488.103 284.825, 490.518 276.594, 490.430 262.500 C 490.354 250.292, 488.337 242.505, 482.986 233.750 C 481.389 231.137, 480.296 229, 480.556 229 C 480.817 229, 483.386 230.312, 486.265 231.915 C 497.946 238.420, 513.545 240.707, 527.201 237.917 C 536.596 235.998, 548.773 229.281, 556.010 222.026 C 567.299 210.710, 573.028 196.893, 573.081 180.855 C 573.189 147.904, 547.402 121.900, 514.617 121.900 C 510.102 121.900, 504.264 122.381, 501.642 122.968 C 495.996 124.234, 484.398 129.345, 481.650 131.780 C 479.370 133.799, 479.428 133.626, 484.098 124.500 C 489.204 114.521, 490.508 108.977, 490.447 97.500 C 490.378 84.714, 487.115 74.325, 479.972 64.155 C 466.849 45.467, 442.957 35.616, 421.500 40.045 M 417 47.831 C 394.266 55.379, 380 74.854, 380 98.339 C 380 108.756, 384.231 121.182, 390.642 129.594 C 393.687 133.590, 393.613 135.039, 390.195 138.313 C 386.726 141.636, 384.766 141.686, 380.658 138.552 C 371.665 131.694, 355.228 127.084, 344.570 128.431 C 320.925 131.421, 301.970 149.279, 297.952 172.352 C 296.575 180.264, 297.739 190.555, 300.998 199.266 C 309.339 221.560, 334.237 236.121, 357 232.019 C 365.465 230.494, 373.701 227.139, 380.538 222.430 L 386.036 218.643 389.518 222.018 C 391.433 223.874, 393 226.001, 393 226.745 C 393 227.489, 391.199 230.663, 388.998 233.799 C 375.384 253.194, 377.629 281.096, 394.214 298.633 C 404.131 309.119, 417.607 315, 431.716 315 C 446.945 315, 457.366 310.625, 468.592 299.517 C 480.080 288.152, 484.670 276.070, 483.748 259.625 C 483.149 248.930, 480.763 241.849, 474.979 233.591 C 472.791 230.467, 471 227.344, 471 226.652 C 471 225.959, 472.553 223.887, 474.451 222.047 L 477.903 218.702 484.395 222.931 C 494.109 229.261, 503.581 232.224, 514.500 232.349 C 528.568 232.511, 539.547 228.097, 550.451 217.897 C 558.406 210.456, 564.129 199.859, 566.075 188.968 C 568.990 172.660, 562.895 154.744, 550.483 143.133 C 531.557 125.428, 505.735 123.390, 484.598 137.932 C 482.146 139.620, 479.345 141, 478.375 141 C 476.366 141, 471 136.231, 471 134.445 C 471 133.796, 472.923 130.393, 475.273 126.882 C 480.913 118.457, 483.166 111.431, 483.734 100.500 C 484.866 78.697, 473.975 60.407, 454.091 50.716 C 445.699 46.626, 445.234 46.523, 434 46.267 C 425.009 46.062, 421.300 46.404, 417 47.831 M 425.650 61.049 C 419.451 62.089, 410.923 66.401, 406.423 70.772 C 398.152 78.805, 394.528 88.257, 395.208 100.020 C 395.815 110.516, 399.105 117.259, 408.193 126.632 L 415.411 134.076 386.956 162.604 C 371.305 178.294, 357.285 191.777, 355.800 192.566 C 346.940 197.271, 336.007 190.607, 336.007 180.500 C 336.007 169.253, 347.424 163.542, 357.778 169.610 L 362.232 172.220 369.616 164.885 C 373.677 160.851, 377 157.065, 377 156.471 C 377 154.782, 370.913 149.421, 366.500 147.224 C 352.738 140.370, 335.361 142.817, 324.440 153.145 C 308.538 168.184, 308.094 191.269, 323.412 206.588 C 332.601 215.776, 344.453 219.494, 356.580 216.991 C 365.152 215.221, 369.556 212.634, 378.047 204.383 L 385.593 197.049 415.223 226.774 C 440.616 252.250, 444.949 257.027, 445.525 260.185 C 447.434 270.639, 437.590 279.330, 427.581 276.027 C 419.102 273.228, 416.096 262.606, 421.465 254.412 C 422.309 253.124, 423 251.480, 423 250.758 C 423 248.876, 409.764 236, 407.828 236 C 405.649 236, 400.869 241.592, 397.911 247.601 C 395.850 251.788, 395.500 253.953, 395.500 262.500 C 395.500 271.356, 395.820 273.186, 398.300 278.500 C 401.944 286.310, 408.743 293.142, 416.390 296.676 C 421.805 299.179, 423.637 299.500, 432.500 299.500 C 444.562 299.500, 449.381 297.574, 458.152 289.248 C 466.432 281.388, 468.492 276.161, 468.496 263 C 468.500 253.685, 468.201 251.879, 465.848 247 C 464.390 243.975, 460.036 238.089, 456.172 233.920 L 449.148 226.339 477.824 197.775 C 493.596 182.065, 507.483 168.713, 508.684 168.105 C 514.570 165.127, 523.452 168.107, 526.551 174.099 C 533.118 186.798, 518.478 199.564, 506.595 191.500 C 504.569 190.125, 502.582 189, 502.181 189 C 501.779 189, 498.136 192.336, 494.085 196.414 C 489.175 201.358, 486.917 204.342, 487.311 205.369 C 488.214 207.722, 496.952 213.747, 501.983 215.487 C 515.976 220.326, 531.224 216.914, 541.187 206.716 C 561.295 186.132, 551.669 151.510, 523.857 144.385 C 510.145 140.872, 497.638 144.776, 486.435 156.066 C 482.650 159.880, 479.074 163, 478.489 163 C 477.903 163, 464.329 149.838, 448.324 133.750 C 417.782 103.050, 416.965 101.988, 418.504 94.983 C 420.005 88.149, 428.699 82.704, 435.416 84.390 C 444.548 86.681, 448.773 98.934, 442.974 106.306 C 441.888 107.686, 441 109.432, 441 110.185 C 441 112.108, 454.202 125, 456.172 125 C 458.365 125, 463.155 119.375, 466.051 113.399 C 469.515 106.252, 470.003 92.657, 467.075 84.888 C 460.733 68.062, 443.380 58.076, 425.650 61.049 M 417.237 166.263 L 403 180.525 417.500 195 L 432 209.474 446.500 195 L 461 180.525 446.763 166.263 C 438.933 158.418, 432.289 152, 432 152 C 431.711 152, 425.067 158.418, 417.237 166.263" stroke="none" fill="#a3043c" fill-rule="evenodd"/></svg>