<?xml version="1.0" standalone="no"?>
<!DOCTYPE svg PUBLIC "-//W3C//DTD SVG 20010904//EN"
 "http://www.w3.org/TR/2001/REC-SVG-20010904/DTD/svg10.dtd">
<svg version="1.0" xmlns="http://www.w3.org/2000/svg"
 width="1024.000000pt" height="1024.000000pt" viewBox="0 0 1024.000000 1024.000000"
 preserveAspectRatio="xMidYMid meet">

<g transform="translate(0.000000,1024.000000) scale(0.100000,-0.100000)"
fill="#000000" stroke="none">
<path d="M5050 10172 c-28 -15 -61 -64 -171 -246 -76 -125 -139 -229 -141
-230 -1 -2 -33 -6 -69 -10 l-67 -6 -182 200 c-199 219 -218 232 -298 211 -67
-19 -84 -48 -177 -306 -47 -132 -90 -244 -94 -248 -4 -4 -35 -16 -69 -26 l-61
-19 -208 154 c-231 172 -260 186 -329 159 -75 -29 -82 -47 -125 -328 -21 -139
-39 -257 -39 -264 0 -12 -105 -73 -125 -73 -6 0 -112 48 -236 106 -248 118
-291 130 -347 95 -18 -12 -41 -35 -53 -53 -22 -35 -22 -32 -3 -458 l5 -125
-50 -37 c-27 -21 -56 -38 -65 -38 -9 0 -124 27 -256 60 -132 33 -249 60 -260
60 -11 0 -39 -9 -60 -20 -42 -21 -80 -80 -80 -122 0 -13 29 -136 64 -274 l63
-251 -21 -24 c-12 -13 -31 -37 -43 -53 l-22 -28 -270 12 c-261 13 -270 12
-302 -7 -19 -10 -44 -35 -57 -54 -39 -56 -28 -96 92 -348 58 -124 106 -230
106 -236 0 -20 -61 -125 -73 -125 -7 0 -125 -18 -264 -39 -283 -43 -299 -49
-329 -126 -14 -38 -15 -52 -6 -83 6 -20 81 -131 166 -245 l154 -208 -19 -61
c-10 -34 -22 -65 -26 -69 -4 -4 -116 -47 -248 -94 -258 -93 -287 -110 -306
-177 -21 -80 -8 -99 212 -299 l201 -182 -6 -36 c-3 -20 -6 -50 -6 -67 0 -30
-9 -37 -230 -169 -127 -77 -238 -150 -247 -164 -24 -35 -24 -127 0 -162 9 -14
120 -87 247 -164 221 -132 230 -139 230 -169 0 -17 3 -47 6 -67 l6 -36 -201
-182 c-220 -200 -233 -219 -212 -299 19 -67 48 -84 306 -177 132 -47 244 -90
248 -94 4 -4 16 -35 26 -69 l19 -61 -154 -208 c-85 -114 -160 -225 -166 -245
-9 -31 -8 -45 6 -83 30 -77 46 -83 329 -126 139 -21 257 -39 264 -39 12 0 73
-105 73 -125 0 -6 -48 -112 -106 -236 -120 -252 -131 -292 -92 -348 13 -19 38
-44 57 -54 32 -19 41 -20 302 -7 l270 12 22 -28 c12 -16 31 -40 43 -53 l21
-24 -63 -251 c-35 -138 -64 -261 -64 -274 0 -42 38 -101 80 -122 21 -11 49
-20 60 -20 11 0 128 27 260 60 132 33 247 60 256 60 9 0 38 -17 65 -38 l50
-37 -5 -125 c-19 -426 -19 -423 3 -458 12 -18 35 -41 53 -53 56 -35 99 -23
347 95 124 58 230 106 236 106 20 0 125 -61 125 -73 0 -7 18 -125 39 -264 43
-281 50 -299 125 -328 69 -27 98 -13 329 159 l208 154 61 -19 c34 -10 65 -22
69 -26 4 -4 47 -116 94 -248 93 -258 110 -287 177 -306 80 -21 99 -8 299 212
183 201 183 201 218 195 20 -3 50 -6 67 -6 30 0 37 -9 169 -230 77 -127 150
-238 164 -247 35 -24 127 -24 162 0 14 9 87 120 164 247 132 221 139 230 169
230 17 0 47 3 67 6 35 6 35 6 218 -195 200 -220 219 -233 299 -212 67 19 84
48 178 309 50 140 94 247 103 251 9 5 39 16 68 24 l52 15 208 -154 c231 -172
260 -186 329 -159 75 29 82 47 125 328 21 139 39 258 39 265 0 7 29 26 64 44
l64 32 229 -109 c257 -121 296 -132 352 -93 19 13 44 38 54 57 19 32 20 41 7
302 l-12 270 28 22 c16 12 40 31 53 43 l24 21 251 -63 c138 -35 261 -64 274
-64 42 0 101 38 122 80 11 21 20 50 20 62 0 13 -29 136 -64 274 l-63 251 21
24 c12 13 31 37 43 53 l22 28 270 -12 c261 -13 270 -12 302 7 19 10 44 35 57
54 39 56 28 96 -92 348 -58 124 -106 230 -106 236 0 20 61 125 73 125 7 0 125
18 264 39 281 43 299 50 328 125 27 69 13 98 -159 329 l-154 208 15 52 c8 29
19 59 24 68 4 9 111 53 251 103 261 94 290 111 309 178 21 81 8 99 -212 299
-201 183 -201 183 -195 218 3 20 6 50 6 67 0 30 9 37 230 169 127 77 238 150
247 164 24 35 24 127 0 162 -9 14 -120 87 -247 164 -221 132 -230 139 -230
169 0 17 -3 47 -6 67 -6 35 -6 35 195 218 220 200 233 218 212 299 -19 67 -48
84 -306 177 -132 47 -244 90 -248 94 -4 4 -16 35 -26 69 l-19 61 154 208 c172
231 186 260 159 329 -29 75 -47 82 -328 125 -139 21 -257 39 -264 39 -12 0
-73 105 -73 125 0 6 48 112 106 236 120 252 131 292 92 348 -13 19 -38 44 -57
54 -32 19 -41 20 -302 7 l-270 -12 -22 28 c-12 16 -31 40 -43 53 l-21 24 63
251 c35 138 64 261 64 274 0 12 -9 41 -20 62 -21 42 -80 80 -122 80 -13 0
-136 -29 -274 -64 l-251 -63 -24 21 c-13 12 -37 31 -53 43 l-28 22 12 270 c13
261 12 270 -7 302 -10 19 -35 44 -54 57 -56 39 -95 28 -352 -93 l-229 -109
-64 32 c-35 18 -64 37 -64 44 0 7 -18 126 -39 265 -43 281 -50 299 -125 328
-69 27 -98 13 -329 -159 l-208 -154 -61 19 c-34 10 -65 22 -69 26 -4 4 -47
116 -94 248 -93 258 -110 287 -177 306 -80 21 -99 8 -299 -212 -183 -201 -183
-201 -218 -195 -20 3 -50 6 -67 6 -30 0 -37 9 -169 230 -78 130 -149 237 -164
247 -39 25 -109 28 -151 5z m203 -932 c55 -27 96 -70 129 -133 18 -33 23 -58
23 -122 0 -64 -5 -89 -23 -122 -58 -110 -145 -165 -260 -165 -116 0 -207 55
-260 156 -22 43 -27 64 -27 131 0 71 3 86 31 135 33 58 104 120 158 138 55 19
175 10 229 -18z m-543 -733 c244 -242 269 -265 319 -280 67 -21 115 -21 182 0
50 15 75 38 319 280 204 201 272 263 290 263 39 0 231 -46 379 -91 444 -133
878 -363 1258 -665 140 -112 453 -427 569 -574 144 -182 354 -501 354 -538 0
-7 -74 -158 -165 -336 l-165 -324 0 -73 c0 -89 27 -155 86 -211 25 -24 150
-93 355 -197 l317 -162 6 -52 c24 -194 32 -453 20 -625 l-7 -92 -198 0 c-247
0 -229 16 -229 -200 0 -175 -13 -247 -60 -341 -104 -205 -349 -276 -578 -167
-119 56 -204 167 -232 303 -52 252 -218 553 -418 753 -51 52 -92 95 -90 96
260 152 479 379 589 609 66 141 91 242 96 402 8 206 -24 366 -107 540 -97 203
-296 434 -481 557 -111 75 -291 160 -404 193 -197 57 -107 55 -2310 55 l-2030
1 155 152 c486 477 1092 809 1751 962 168 38 127 61 429 -238z m-3150 -1928
c183 -82 230 -328 89 -468 -140 -141 -381 -97 -465 84 -33 70 -33 171 0 240
50 105 144 165 261 165 49 0 84 -7 115 -21z m7350 0 c183 -82 230 -328 89
-468 -140 -141 -381 -97 -465 84 -33 70 -33 171 0 240 50 105 144 165 261 165
49 0 84 -7 115 -21z m-6210 -1314 l0 -1205 -574 0 -573 0 -31 118 c-71 270
-109 542 -119 842 -5 166 7 434 24 543 l6 37 311 157 c210 107 325 171 355
198 63 57 91 122 91 211 0 66 -4 79 -55 183 -30 62 -55 114 -55 117 0 2 140 4
310 4 l310 0 0 -1205z m3095 1176 c96 -32 139 -55 192 -104 127 -117 129 -283
4 -401 -62 -57 -130 -91 -233 -116 -78 -19 -120 -20 -745 -20 l-663 0 0 335 0
336 688 -3 687 -3 70 -24z m-367 -1726 c160 -38 288 -147 375 -321 52 -102
108 -290 162 -542 112 -517 166 -666 288 -800 49 -53 122 -102 192 -128 47
-18 100 -19 854 -24 l803 -5 -85 -105 c-46 -58 -109 -132 -139 -164 l-54 -60
-80 12 c-43 6 -194 30 -334 52 -298 49 -370 50 -443 7 -57 -34 -112 -97 -130
-151 -8 -22 -38 -195 -68 -384 l-54 -342 -63 -30 c-363 -170 -833 -288 -1277
-320 -594 -43 -1244 72 -1770 314 l-80 37 -54 342 c-30 188 -60 361 -68 383
-18 54 -73 117 -130 151 -76 44 -141 42 -504 -16 -175 -28 -326 -51 -337 -51
-21 0 -108 92 -226 240 l-68 85 1523 3 c1399 2 1524 3 1541 19 17 15 18 46 18
560 0 530 0 543 -20 563 -19 19 -33 20 -435 20 l-415 0 0 335 0 335 508 0
c412 0 519 -3 570 -15z m-2449 -2466 c269 -135 172 -542 -129 -542 -219 0
-358 232 -254 423 54 100 136 148 255 149 55 1 76 -4 128 -30z m4513 15 c183
-62 247 -310 118 -457 -142 -161 -396 -124 -482 70 -63 142 -5 303 133 372 72
36 155 41 231 15z"/>
</g>
</svg>
