<svg id="svg" version="1.1" xmlns="http://www.w3.org/2000/svg" xmlns:xlink="http://www.w3.org/1999/xlink" width="400" height="400" viewBox="0, 0, 400,400"><g id="svgg"><path id="path0" d="M302.000 186.453 C 297.395 187.074,293.835 187.647,292.400 187.998 C 291.630 188.186,289.920 188.553,288.600 188.812 C 287.280 189.071,285.840 189.421,285.400 189.589 C 284.960 189.757,283.340 190.295,281.800 190.784 C 257.022 198.652,243.192 221.473,247.731 247.000 C 249.841 258.867,255.317 267.343,266.838 276.575 C 270.660 279.637,283.685 286.856,289.600 289.189 C 291.443 289.917,296.949 292.345,302.000 294.659 C 313.287 299.831,323.600 308.156,323.600 312.098 C 323.600 312.396,323.818 312.858,324.085 313.125 C 325.099 314.139,324.693 321.905,323.494 324.436 C 316.902 338.353,285.816 340.349,261.487 328.418 C 255.783 325.620,251.479 323.015,249.425 321.117 C 248.998 320.722,248.501 320.400,248.321 320.400 C 248.140 320.400,248.039 328.626,248.096 338.681 L 248.200 356.961 249.800 357.735 C 250.680 358.161,251.805 358.665,252.300 358.855 C 252.795 359.045,253.605 359.371,254.100 359.580 C 255.267 360.072,258.641 361.198,260.300 361.647 C 261.015 361.841,262.275 362.194,263.100 362.430 C 267.053 363.564,274.134 364.878,280.400 365.642 C 285.945 366.317,304.380 366.554,309.800 366.020 C 319.402 365.073,328.901 363.157,333.900 361.160 C 334.395 360.962,335.205 360.641,335.700 360.448 C 346.612 356.175,356.806 347.691,360.270 340.000 C 361.951 336.266,362.400 335.147,362.400 334.684 C 362.400 334.396,362.543 333.989,362.718 333.780 C 363.233 333.166,363.850 330.995,365.185 325.100 C 367.239 316.035,366.255 303.496,362.824 295.000 C 357.730 282.386,343.123 270.399,322.400 261.826 C 321.410 261.417,319.790 260.727,318.800 260.294 C 317.810 259.861,316.370 259.239,315.600 258.910 C 295.504 250.349,287.802 243.549,287.836 234.400 C 287.892 219.407,309.296 212.512,336.226 218.813 C 342.295 220.233,351.620 223.728,354.400 225.624 C 355.626 226.461,358.355 228.000,358.612 228.000 C 358.715 228.000,358.800 220.055,358.800 210.344 C 358.800 191.235,358.847 191.652,356.695 191.613 C 356.307 191.606,355.677 191.438,355.295 191.239 C 354.668 190.913,353.418 190.534,349.800 189.573 C 344.484 188.161,341.021 187.549,331.979 186.425 C 327.953 185.925,305.761 185.945,302.000 186.453 M92.400 205.797 L 92.400 221.594 117.300 221.697 L 142.200 221.800 142.301 293.304 L 142.402 364.808 162.101 364.704 L 181.800 364.600 181.901 293.100 L 182.002 221.600 207.001 221.600 L 232.000 221.600 232.000 205.800 L 232.000 190.000 162.200 190.000 L 92.400 190.000 92.400 205.797 " stroke="none" fill="#fbfbfb" fill-rule="evenodd"></path><path id="path1" d="M31.137 0.196 C 31.025 0.309,30.183 0.430,29.266 0.466 C 28.350 0.502,27.600 0.682,27.600 0.866 C 27.600 1.050,27.150 1.200,26.600 1.200 C 26.050 1.200,25.600 1.380,25.600 1.600 C 25.600 1.820,25.060 2.000,24.400 2.000 C 23.740 2.000,23.200 2.180,23.200 2.400 C 23.200 2.620,22.840 2.800,22.400 2.800 C 21.960 2.800,21.600 2.980,21.600 3.200 C 21.600 3.420,21.240 3.600,20.800 3.600 C 20.360 3.600,20.000 3.758,20.000 3.951 C 20.000 4.145,19.460 4.527,18.800 4.800 C 18.140 5.073,17.600 5.455,17.600 5.649 C 17.600 5.842,17.364 6.000,17.075 6.000 C 16.787 6.000,16.164 6.360,15.692 6.800 C 15.220 7.240,14.655 7.600,14.437 7.600 C 13.853 7.600,7.600 13.827,7.600 14.409 C 7.600 14.683,7.284 15.197,6.897 15.553 C 6.511 15.909,5.940 16.695,5.630 17.300 C 5.319 17.905,4.915 18.400,4.732 18.400 C 4.550 18.400,4.400 18.760,4.400 19.200 C 4.400 19.640,4.220 20.000,4.000 20.000 C 3.780 20.000,3.600 20.360,3.600 20.800 C 3.600 21.240,3.420 21.600,3.200 21.600 C 2.980 21.600,2.800 21.960,2.800 22.400 C 2.800 22.840,2.620 23.200,2.400 23.200 C 2.180 23.200,2.000 23.740,2.000 24.400 C 2.000 25.060,1.820 25.600,1.600 25.600 C 1.380 25.600,1.200 26.035,1.200 26.567 C 1.200 27.098,0.975 27.608,0.700 27.700 C 0.301 27.833,0.200 62.649,0.200 200.000 C 0.200 337.351,0.301 372.167,0.700 372.300 C 0.975 372.392,1.200 372.902,1.200 373.433 C 1.200 373.965,1.380 374.400,1.600 374.400 C 1.820 374.400,2.000 374.940,2.000 375.600 C 2.000 376.260,2.180 376.800,2.400 376.800 C 2.620 376.800,2.800 377.160,2.800 377.600 C 2.800 378.040,2.980 378.400,3.200 378.400 C 3.420 378.400,3.600 378.760,3.600 379.200 C 3.600 379.640,3.780 380.000,4.000 380.000 C 4.220 380.000,4.400 380.278,4.400 380.618 C 4.400 380.958,4.853 381.690,5.408 382.244 C 5.962 382.798,6.331 383.387,6.229 383.553 C 6.127 383.719,6.393 384.107,6.821 384.415 C 7.250 384.724,7.600 385.184,7.600 385.437 C 7.600 385.992,13.368 392.000,13.901 392.000 C 14.107 392.000,14.799 392.450,15.438 393.000 C 16.077 393.549,16.785 393.999,17.012 394.000 C 17.238 394.000,17.683 394.360,18.000 394.800 C 18.317 395.240,18.897 395.600,19.288 395.600 C 19.680 395.600,20.000 395.780,20.000 396.000 C 20.000 396.220,20.234 396.400,20.520 396.400 C 21.256 396.400,23.193 397.341,23.197 397.700 C 23.199 397.865,23.740 398.000,24.400 398.000 C 25.060 398.000,25.600 398.180,25.600 398.400 C 25.600 398.620,26.151 398.800,26.824 398.800 C 27.497 398.800,27.946 398.963,27.823 399.163 C 27.699 399.363,29.254 399.641,31.299 399.784 C 38.865 400.314,372.120 399.841,372.300 399.300 C 372.392 399.025,372.902 398.800,373.433 398.800 C 373.965 398.800,374.400 398.620,374.400 398.400 C 374.400 398.180,374.940 398.000,375.600 398.000 C 376.260 398.000,376.800 397.820,376.800 397.600 C 376.800 397.380,377.160 397.200,377.600 397.200 C 378.040 397.200,378.400 397.020,378.400 396.800 C 378.400 396.580,378.760 396.400,379.200 396.400 C 379.640 396.400,380.000 396.220,380.000 396.000 C 380.000 395.780,380.270 395.600,380.600 395.600 C 380.930 395.600,381.200 395.420,381.200 395.200 C 381.200 394.980,381.455 394.800,381.767 394.800 C 382.078 394.800,382.393 394.633,382.467 394.430 C 382.540 394.226,382.870 394.001,383.200 393.930 C 383.530 393.858,384.091 393.485,384.447 393.100 C 384.803 392.715,385.282 392.400,385.511 392.400 C 386.176 392.400,392.400 386.087,392.400 385.411 C 392.400 385.075,392.550 384.800,392.732 384.800 C 392.915 384.800,393.319 384.305,393.630 383.700 C 393.940 383.095,394.511 382.309,394.897 381.953 C 395.284 381.597,395.600 381.012,395.600 380.653 C 395.600 380.294,395.780 380.000,396.000 380.000 C 396.220 380.000,396.400 379.640,396.400 379.200 C 396.400 378.760,396.591 378.400,396.824 378.400 C 397.057 378.400,397.145 378.235,397.020 378.032 C 396.895 377.830,397.064 377.393,397.396 377.061 C 397.728 376.729,398.000 375.994,398.000 375.429 C 398.000 374.863,398.180 374.400,398.400 374.400 C 398.620 374.400,398.800 373.965,398.800 373.433 C 398.800 372.902,399.025 372.392,399.300 372.300 C 400.036 372.055,400.036 27.945,399.300 27.700 C 399.025 27.608,398.800 27.098,398.800 26.567 C 398.800 26.035,398.620 25.600,398.400 25.600 C 398.180 25.600,398.000 25.060,398.000 24.400 C 398.000 23.740,397.820 23.200,397.600 23.200 C 397.380 23.200,397.200 22.840,397.200 22.400 C 397.200 21.960,397.020 21.600,396.800 21.600 C 396.580 21.600,396.400 21.240,396.400 20.800 C 396.400 20.360,396.220 20.000,396.000 20.000 C 395.780 20.000,395.600 19.706,395.600 19.347 C 395.600 18.988,395.284 18.403,394.897 18.047 C 394.511 17.691,393.940 16.905,393.630 16.300 C 393.319 15.695,392.915 15.200,392.732 15.200 C 392.550 15.200,392.400 14.930,392.400 14.600 C 392.400 13.818,386.182 7.600,385.400 7.600 C 385.070 7.600,384.800 7.462,384.800 7.294 C 384.800 7.126,384.080 6.544,383.200 6.000 C 382.320 5.456,381.600 4.874,381.600 4.706 C 381.600 4.538,381.240 4.400,380.800 4.400 C 380.360 4.400,380.000 4.220,380.000 4.000 C 380.000 3.780,379.640 3.600,379.200 3.600 C 378.760 3.600,378.400 3.420,378.400 3.200 C 378.400 2.980,378.040 2.800,377.600 2.800 C 377.160 2.800,376.800 2.620,376.800 2.400 C 376.800 2.180,376.260 2.000,375.600 2.000 C 374.940 2.000,374.400 1.820,374.400 1.600 C 374.400 1.380,373.965 1.200,373.433 1.200 C 372.902 1.200,372.392 0.975,372.300 0.700 C 372.133 0.198,31.638 -0.305,31.137 0.196 M330.800 185.596 C 333.110 185.798,336.260 186.146,337.800 186.370 C 339.340 186.593,341.410 186.882,342.400 187.011 C 343.390 187.140,344.560 187.403,345.000 187.595 C 345.440 187.788,346.430 188.056,347.200 188.192 C 347.970 188.327,349.187 188.539,349.904 188.663 C 350.621 188.787,351.306 189.049,351.427 189.244 C 351.548 189.440,352.166 189.600,352.800 189.600 C 353.434 189.600,354.064 189.780,354.200 190.000 C 354.336 190.220,354.876 190.400,355.400 190.400 C 355.924 190.400,356.464 190.580,356.600 190.800 C 356.736 191.020,357.209 191.200,357.652 191.200 C 359.611 191.200,359.600 191.092,359.600 210.548 C 359.600 229.908,359.609 229.830,357.636 228.425 C 356.998 227.971,356.279 227.600,356.038 227.600 C 355.797 227.600,355.600 227.420,355.600 227.200 C 355.600 226.980,355.330 226.800,355.000 226.800 C 354.670 226.800,354.400 226.620,354.400 226.400 C 354.400 226.180,354.040 226.000,353.600 226.000 C 353.160 226.000,352.799 225.865,352.797 225.700 C 352.793 225.341,350.856 224.400,350.120 224.400 C 349.834 224.400,349.600 224.220,349.600 224.000 C 349.600 223.780,349.238 223.600,348.795 223.600 C 348.352 223.600,347.677 223.441,347.295 223.247 C 344.691 221.922,340.985 220.770,335.193 219.486 C 313.756 214.731,294.734 218.393,290.077 228.171 C 288.620 231.231,288.400 232.039,288.406 234.319 C 288.416 238.223,289.826 241.372,293.000 244.581 C 294.889 246.490,299.748 250.400,300.232 250.400 C 300.355 250.400,301.208 250.903,302.128 251.517 C 303.724 252.584,306.273 253.869,312.000 256.493 C 313.430 257.148,314.913 257.845,315.295 258.042 C 315.677 258.239,316.262 258.400,316.595 258.400 C 316.928 258.400,317.200 258.580,317.200 258.800 C 317.200 259.020,317.472 259.200,317.805 259.200 C 318.138 259.200,318.723 259.360,319.105 259.556 C 319.771 259.898,321.291 260.586,325.200 262.315 C 328.579 263.810,333.796 266.422,336.600 268.022 C 338.140 268.901,339.715 269.727,340.100 269.857 C 340.485 269.987,340.800 270.252,340.800 270.447 C 340.800 270.641,340.993 270.800,341.228 270.800 C 341.735 270.800,345.341 273.209,345.533 273.677 C 345.607 273.855,345.845 274.000,346.062 274.000 C 346.279 274.000,346.686 274.225,346.965 274.500 C 347.245 274.775,348.087 275.448,348.837 275.995 C 350.223 277.008,356.891 283.561,358.018 285.018 C 359.570 287.026,361.142 289.626,362.360 292.200 C 363.088 293.740,363.845 295.313,364.042 295.695 C 364.239 296.077,364.400 296.741,364.400 297.171 C 364.400 297.601,364.560 298.052,364.756 298.173 C 364.951 298.294,365.213 298.979,365.336 299.696 C 365.459 300.413,365.792 302.170,366.076 303.600 C 366.393 305.199,366.592 309.281,366.592 314.200 C 366.592 319.119,366.393 323.201,366.076 324.800 C 365.792 326.230,365.459 327.987,365.336 328.704 C 365.213 329.421,364.951 330.106,364.756 330.227 C 364.560 330.348,364.400 330.876,364.400 331.400 C 364.400 331.924,364.220 332.464,364.000 332.600 C 363.780 332.736,363.600 333.199,363.600 333.629 C 363.600 334.059,363.441 334.723,363.247 335.105 C 363.052 335.487,362.714 336.250,362.496 336.800 C 361.523 339.245,359.450 343.200,359.140 343.200 C 358.953 343.200,358.797 343.425,358.793 343.700 C 358.764 345.662,347.329 356.400,345.268 356.400 C 345.047 356.400,344.807 356.537,344.733 356.704 C 344.554 357.112,337.933 360.407,337.300 360.403 C 337.025 360.401,336.800 360.580,336.800 360.800 C 336.800 361.020,336.451 361.200,336.024 361.200 C 335.597 361.200,335.136 361.380,335.000 361.600 C 334.864 361.820,334.324 362.000,333.800 362.000 C 333.276 362.000,332.736 362.180,332.600 362.400 C 332.464 362.620,331.924 362.800,331.400 362.800 C 330.876 362.800,330.348 362.960,330.227 363.156 C 330.106 363.351,329.421 363.612,328.704 363.734 C 327.987 363.856,326.500 364.155,325.400 364.399 C 307.146 368.446,282.650 368.124,264.400 363.597 C 263.410 363.352,262.103 363.051,261.495 362.929 C 260.887 362.807,260.292 362.549,260.171 362.354 C 260.051 362.159,259.511 362.000,258.971 362.000 C 258.431 362.000,257.632 361.820,257.195 361.600 C 256.758 361.380,256.042 361.020,255.605 360.800 C 255.168 360.580,254.459 360.400,254.029 360.400 C 253.599 360.400,253.136 360.220,253.000 360.000 C 252.864 359.780,252.403 359.600,251.976 359.600 C 251.549 359.600,251.200 359.420,251.200 359.200 C 251.200 358.980,250.885 358.787,250.500 358.771 C 250.115 358.755,249.260 358.425,248.600 358.038 L 247.400 357.335 247.296 338.595 C 247.205 322.132,247.115 319.769,246.557 319.152 C 246.207 318.766,246.040 318.259,246.184 318.025 C 246.647 317.276,247.608 317.569,247.991 318.576 C 248.195 319.112,248.716 319.741,249.150 319.973 C 249.583 320.205,250.177 320.629,250.469 320.916 C 251.375 321.806,254.721 324.000,255.172 324.000 C 255.407 324.000,255.601 324.135,255.603 324.300 C 255.605 324.465,256.010 324.799,256.503 325.041 C 256.996 325.284,258.390 326.015,259.600 326.665 C 263.433 328.724,270.196 331.451,274.000 332.470 C 274.770 332.676,276.030 333.019,276.800 333.232 C 283.499 335.082,295.231 336.043,301.200 335.232 C 304.713 334.754,311.343 333.307,312.400 332.787 C 312.730 332.625,314.039 331.981,315.309 331.357 C 317.906 330.080,321.600 327.034,321.600 326.169 C 321.600 325.856,321.736 325.600,321.902 325.600 C 322.069 325.600,322.440 325.015,322.729 324.300 C 323.017 323.585,323.421 322.687,323.626 322.305 C 324.128 321.373,324.106 314.512,323.600 314.200 C 323.380 314.064,323.200 313.513,323.200 312.976 C 323.200 312.439,323.020 312.000,322.800 312.000 C 322.580 312.000,322.400 311.640,322.400 311.200 C 322.400 310.760,322.250 310.400,322.068 310.400 C 321.885 310.400,321.480 309.907,321.168 309.305 C 319.387 305.870,312.030 300.417,303.800 296.432 C 300.940 295.047,297.908 293.573,297.062 293.157 C 296.216 292.740,295.271 292.400,294.962 292.400 C 294.653 292.400,294.400 292.220,294.400 292.000 C 294.400 291.780,294.128 291.600,293.795 291.600 C 293.462 291.600,292.877 291.441,292.495 291.247 C 292.113 291.052,291.350 290.711,290.800 290.487 C 287.023 288.954,278.667 284.857,275.600 283.035 C 274.610 282.446,273.485 281.862,273.100 281.736 C 272.715 281.610,272.400 281.348,272.400 281.153 C 272.400 280.959,272.207 280.800,271.972 280.800 C 271.465 280.800,267.859 278.391,267.667 277.923 C 267.593 277.745,267.355 277.600,267.138 277.600 C 266.921 277.600,266.514 277.375,266.235 277.100 C 265.955 276.825,265.124 276.150,264.387 275.600 C 261.145 273.179,255.895 267.401,252.970 263.034 C 242.522 247.435,244.530 218.926,256.975 206.168 C 257.429 205.703,258.444 204.620,259.231 203.761 C 262.249 200.469,267.938 196.180,271.200 194.736 C 271.860 194.444,272.400 194.069,272.400 193.902 C 272.400 193.736,272.760 193.600,273.200 193.600 C 273.640 193.600,274.000 193.420,274.000 193.200 C 274.000 192.980,274.360 192.800,274.800 192.800 C 275.240 192.800,275.600 192.620,275.600 192.400 C 275.600 192.180,275.872 192.000,276.205 192.000 C 276.793 192.000,277.218 191.833,279.095 190.862 C 279.587 190.608,280.341 190.400,280.771 190.400 C 281.201 190.400,281.664 190.220,281.800 190.000 C 281.936 189.780,282.476 189.600,283.000 189.600 C 283.524 189.600,284.064 189.420,284.200 189.200 C 284.336 188.980,284.966 188.800,285.600 188.800 C 286.234 188.800,286.852 188.639,286.974 188.442 C 287.095 188.245,287.871 187.985,288.697 187.863 C 289.524 187.741,291.190 187.442,292.400 187.200 C 296.082 186.462,299.590 185.994,304.119 185.636 C 306.495 185.448,308.565 185.165,308.719 185.006 C 309.058 184.657,324.909 185.081,330.800 185.596 M232.400 205.800 L 232.400 222.000 207.401 222.000 L 182.402 222.000 182.301 293.500 L 182.200 365.000 162.100 365.104 L 142.000 365.207 142.000 293.604 L 142.000 222.000 117.000 222.000 L 92.000 222.000 92.000 205.800 L 92.000 189.600 162.200 189.600 L 232.400 189.600 232.400 205.800 " stroke="none" fill="#2c7bc4" fill-rule="evenodd"></path><path id="path2" d="M310.300 185.489 C 311.015 185.578,312.185 185.578,312.900 185.489 C 313.615 185.401,313.030 185.328,311.600 185.328 C 310.170 185.328,309.585 185.401,310.300 185.489 M319.300 185.491 C 320.125 185.578,321.475 185.578,322.300 185.491 C 323.125 185.405,322.450 185.334,320.800 185.334 C 319.150 185.334,318.475 185.405,319.300 185.491 M304.900 185.876 C 305.285 185.976,305.915 185.976,306.300 185.876 C 306.685 185.775,306.370 185.693,305.600 185.693 C 304.830 185.693,304.515 185.775,304.900 185.876 M327.100 185.882 C 327.595 185.978,328.405 185.978,328.900 185.882 C 329.395 185.787,328.990 185.709,328.000 185.709 C 327.010 185.709,326.605 185.787,327.100 185.882 M359.200 210.320 L 359.400 228.600 359.504 210.624 C 359.561 200.737,359.471 192.511,359.304 192.344 C 359.137 192.177,359.090 200.266,359.200 210.320 M315.315 217.096 C 316.588 217.176,318.568 217.175,319.715 217.094 C 320.862 217.014,319.820 216.949,317.400 216.950 C 314.980 216.951,314.042 217.016,315.315 217.096 M288.120 234.400 C 288.120 235.610,288.195 236.105,288.287 235.500 C 288.378 234.895,288.378 233.905,288.287 233.300 C 288.195 232.695,288.120 233.190,288.120 234.400 M246.542 237.400 C 246.541 239.380,246.608 240.240,246.692 239.312 C 246.776 238.384,246.777 236.764,246.695 235.712 C 246.612 234.660,246.543 235.420,246.542 237.400 M260.200 271.600 C 261.283 272.700,262.260 273.600,262.370 273.600 C 262.480 273.600,261.683 272.700,260.600 271.600 C 259.517 270.500,258.540 269.600,258.430 269.600 C 258.320 269.600,259.117 270.500,260.200 271.600 M353.400 280.800 C 354.928 282.340,356.269 283.600,356.379 283.600 C 356.489 283.600,355.328 282.340,353.800 280.800 C 352.272 279.260,350.931 278.000,350.821 278.000 C 350.711 278.000,351.872 279.260,353.400 280.800 M366.493 314.400 C 366.493 315.170,366.575 315.485,366.676 315.100 C 366.776 314.715,366.776 314.085,366.676 313.700 C 366.575 313.315,366.493 313.630,366.493 314.400 M289.900 335.889 C 290.615 335.978,291.785 335.978,292.500 335.889 C 293.215 335.801,292.630 335.728,291.200 335.728 C 289.770 335.728,289.185 335.801,289.900 335.889 M296.700 335.889 C 297.415 335.978,298.585 335.978,299.300 335.889 C 300.015 335.801,299.430 335.728,298.000 335.728 C 296.570 335.728,295.985 335.801,296.700 335.889 M142.344 364.904 C 142.511 365.071,151.457 365.161,162.224 365.104 L 181.800 365.000 161.920 364.800 C 150.986 364.690,142.176 364.737,142.344 364.904 M295.315 367.096 C 296.588 367.176,298.568 367.175,299.715 367.094 C 300.862 367.014,299.820 366.949,297.400 366.950 C 294.980 366.951,294.042 367.016,295.315 367.096 " stroke="none" fill="#7ba9db" fill-rule="evenodd"></path><path id="path3" d="M310.400 185.604 C 307.754 185.773,309.627 185.870,316.567 185.923 C 322.048 185.966,326.458 185.935,326.367 185.856 C 326.024 185.558,314.056 185.370,310.400 185.604 M300.200 186.400 C 298.470 186.840,300.357 186.855,302.800 186.420 L 304.600 186.100 303.000 186.097 C 302.120 186.096,300.860 186.232,300.200 186.400 M331.400 186.423 C 332.280 186.605,333.630 186.744,334.400 186.731 L 335.800 186.708 334.200 186.377 C 333.320 186.195,331.970 186.056,331.200 186.069 L 329.800 186.092 331.400 186.423 M294.800 187.200 L 293.800 187.520 294.800 187.520 C 295.350 187.520,296.250 187.376,296.800 187.200 L 297.800 186.880 296.800 186.880 C 296.250 186.880,295.350 187.024,294.800 187.200 M338.000 187.200 C 338.550 187.376,339.540 187.517,340.200 187.513 L 341.400 187.505 340.200 187.200 C 339.540 187.032,338.550 186.891,338.000 186.887 L 337.000 186.880 338.000 187.200 M290.800 188.000 L 289.800 188.320 290.800 188.354 C 291.350 188.373,292.070 188.213,292.400 188.000 C 293.164 187.506,292.342 187.506,290.800 188.000 M343.000 188.000 C 343.440 188.189,344.250 188.338,344.800 188.332 L 345.800 188.320 344.800 188.000 C 344.250 187.824,343.440 187.674,343.000 187.668 L 342.200 187.656 343.000 188.000 M287.200 188.800 C 286.396 189.057,286.357 189.123,287.000 189.132 C 287.440 189.138,288.160 188.989,288.600 188.800 C 289.619 188.362,288.568 188.362,287.200 188.800 M346.800 188.800 C 347.130 189.013,347.850 189.173,348.400 189.154 L 349.400 189.120 348.400 188.800 C 346.858 188.306,346.036 188.306,346.800 188.800 M284.200 189.600 C 283.429 189.931,283.431 189.945,284.276 189.972 C 284.758 189.987,285.264 189.820,285.400 189.600 C 285.692 189.127,285.301 189.127,284.200 189.600 M350.000 189.600 C 350.330 189.813,350.960 189.978,351.400 189.966 L 352.200 189.944 351.400 189.600 C 350.204 189.086,349.205 189.086,350.000 189.600 M92.183 190.101 C 92.077 190.376,92.038 197.621,92.095 206.201 L 92.200 221.800 117.099 221.903 L 141.998 222.006 142.101 293.203 L 142.203 364.400 142.202 293.100 L 142.200 221.800 117.300 221.697 L 92.400 221.594 92.400 205.798 L 92.400 190.002 162.100 189.900 L 231.800 189.798 162.087 189.699 C 106.542 189.620,92.336 189.702,92.183 190.101 M352.800 190.400 C 353.130 190.613,353.760 190.778,354.200 190.766 L 355.000 190.744 354.200 190.400 C 353.004 189.886,352.005 189.886,352.800 190.400 M277.933 191.776 C 272.657 193.968,262.400 200.304,262.400 201.371 C 262.400 201.526,263.165 201.038,264.100 200.287 C 267.975 197.171,272.827 194.426,280.000 191.291 C 281.980 190.426,280.148 190.855,277.933 191.776 M355.400 191.200 C 355.536 191.420,356.042 191.587,356.524 191.572 C 357.369 191.545,357.371 191.531,356.600 191.200 C 355.499 190.727,355.108 190.727,355.400 191.200 M358.100 192.157 C 358.852 192.728,359.226 228.000,358.480 228.000 C 358.304 228.000,357.947 227.787,357.687 227.527 C 357.426 227.266,357.104 227.163,356.969 227.297 C 356.835 227.431,357.282 227.829,357.963 228.181 L 359.200 228.821 359.200 210.690 C 359.200 192.456,359.136 191.573,357.820 191.613 C 357.589 191.620,357.715 191.865,358.100 192.157 M260.075 203.324 C 259.154 204.262,258.400 205.156,258.400 205.309 C 258.400 205.462,259.212 204.753,260.204 203.732 C 261.197 202.711,261.950 201.817,261.879 201.746 C 261.808 201.675,260.996 202.385,260.075 203.324 M254.887 209.700 C 253.427 211.856,253.112 212.400,253.320 212.400 C 253.412 212.400,254.144 211.410,254.947 210.200 C 255.751 208.990,256.325 208.000,256.223 208.000 C 256.122 208.000,255.520 208.765,254.887 209.700 M311.200 216.760 C 310.210 216.892,313.090 217.001,317.600 217.002 C 322.110 217.003,324.990 216.881,324.000 216.732 C 321.844 216.405,313.726 216.423,311.200 216.760 M306.000 217.600 C 305.208 217.854,305.167 217.920,305.800 217.920 C 306.240 217.920,307.050 217.776,307.600 217.600 C 308.392 217.346,308.433 217.280,307.800 217.280 C 307.360 217.280,306.550 217.424,306.000 217.600 M328.200 217.600 C 328.860 217.768,329.850 217.905,330.400 217.905 C 331.292 217.905,331.270 217.872,330.200 217.600 C 329.540 217.432,328.550 217.295,328.000 217.295 C 327.108 217.295,327.130 217.328,328.200 217.600 M302.600 218.400 C 302.096 218.617,302.022 218.744,302.400 218.744 C 302.730 218.744,303.360 218.589,303.800 218.400 C 304.304 218.183,304.378 218.056,304.000 218.056 C 303.670 218.056,303.040 218.211,302.600 218.400 M332.800 218.400 C 333.350 218.576,334.160 218.720,334.600 218.720 C 335.233 218.720,335.192 218.654,334.400 218.400 C 333.850 218.224,333.040 218.080,332.600 218.080 C 331.967 218.080,332.008 218.146,332.800 218.400 M299.400 219.485 C 297.724 220.159,292.727 223.260,292.953 223.486 C 293.025 223.558,294.145 222.918,295.442 222.063 C 296.739 221.209,298.655 220.190,299.700 219.800 C 300.745 219.410,301.600 219.026,301.600 218.946 C 301.600 218.688,301.037 218.826,299.400 219.485 M336.200 219.181 C 336.968 219.529,339.110 219.756,338.767 219.453 C 338.675 219.372,337.880 219.196,337.000 219.062 C 335.885 218.893,335.642 218.929,336.200 219.181 M341.601 220.531 C 341.805 220.731,345.723 222.191,347.708 222.806 C 348.385 223.015,348.726 223.003,348.584 222.774 C 348.457 222.568,348.108 222.400,347.810 222.400 C 347.511 222.400,346.486 222.068,345.533 221.663 C 343.747 220.904,341.248 220.184,341.601 220.531 M248.673 221.753 C 248.523 222.145,248.411 222.766,248.425 223.133 C 248.442 223.575,248.581 223.474,248.837 222.834 C 249.049 222.303,249.161 221.682,249.085 221.454 C 249.009 221.227,248.824 221.361,248.673 221.753 M194.529 221.900 C 201.530 221.961,212.870 221.961,219.729 221.900 C 226.588 221.838,220.860 221.788,207.000 221.788 C 193.140 221.788,187.528 221.839,194.529 221.900 M349.233 223.339 C 349.820 223.829,355.224 226.363,355.037 226.061 C 354.800 225.677,349.883 223.200,349.359 223.200 C 349.198 223.200,349.142 223.263,349.233 223.339 M247.856 224.884 C 247.721 225.388,247.627 226.160,247.646 226.600 C 247.665 227.040,247.845 226.698,248.046 225.840 C 248.436 224.178,248.270 223.340,247.856 224.884 M290.500 226.016 C 289.237 227.575,289.371 227.933,290.650 226.414 C 291.227 225.728,291.632 225.108,291.550 225.036 C 291.467 224.964,290.995 225.405,290.500 226.016 M247.059 229.088 C 246.921 229.919,246.831 231.590,246.858 232.800 C 246.900 234.624,246.967 234.390,247.251 231.430 C 247.606 227.742,247.498 226.430,247.059 229.088 M287.784 232.591 C 287.633 233.796,287.667 235.641,287.859 236.691 C 288.159 238.333,288.208 238.027,288.208 234.500 C 288.209 229.792,288.161 229.575,287.784 232.591 M246.840 242.233 C 246.862 243.755,247.021 245.450,247.194 246.000 C 247.366 246.550,247.413 245.380,247.298 243.400 C 247.047 239.065,246.785 238.398,246.840 242.233 M289.883 241.930 C 291.158 244.294,296.299 248.984,299.800 250.978 C 300.988 251.654,300.990 251.654,300.014 250.930 C 295.603 247.662,294.331 246.601,292.586 244.734 C 291.490 243.560,290.272 242.150,289.879 241.600 C 289.201 240.650,289.201 240.666,289.883 241.930 M247.628 248.433 C 247.644 248.965,247.819 249.760,248.019 250.200 C 248.271 250.758,248.307 250.515,248.138 249.400 C 247.855 247.543,247.587 247.036,247.628 248.433 M248.456 251.600 C 248.456 251.930,248.611 252.560,248.800 253.000 C 249.017 253.504,249.144 253.578,249.144 253.200 C 249.144 252.870,248.989 252.240,248.800 251.800 C 248.583 251.296,248.456 251.222,248.456 251.600 M302.000 252.367 C 302.963 253.152,303.600 253.408,303.600 253.010 C 303.600 252.906,303.015 252.535,302.300 252.186 L 301.000 251.552 302.000 252.367 M304.000 253.398 C 304.000 253.667,308.049 255.684,308.229 255.505 C 308.311 255.423,307.393 254.873,306.189 254.282 C 304.985 253.692,304.000 253.294,304.000 253.398 M312.595 257.592 C 312.734 257.816,313.025 258.000,313.243 258.000 C 313.461 258.000,314.384 258.360,315.294 258.800 C 317.103 259.674,318.420 259.916,316.800 259.077 C 314.877 258.082,312.345 257.187,312.595 257.592 M318.000 259.789 C 318.000 260.106,320.900 261.233,321.128 261.005 C 321.241 260.892,321.235 260.800,321.116 260.800 C 320.996 260.800,320.246 260.528,319.449 260.195 C 318.652 259.862,318.000 259.679,318.000 259.789 M321.800 261.509 C 322.020 261.713,323.010 262.191,324.000 262.570 C 324.990 262.950,325.620 263.095,325.400 262.891 C 325.180 262.687,324.190 262.209,323.200 261.830 C 322.210 261.450,321.580 261.305,321.800 261.509 M253.784 263.400 C 256.329 267.581,267.281 278.640,267.181 276.927 C 267.170 276.747,266.159 275.881,264.934 275.003 C 262.430 273.207,258.291 268.925,255.621 265.369 C 253.467 262.500,252.802 261.787,253.784 263.400 M329.233 264.949 C 329.645 265.317,332.000 266.400,332.000 266.221 C 332.000 265.990,329.782 264.800,329.353 264.800 C 329.196 264.800,329.142 264.867,329.233 264.949 M335.800 268.297 C 336.020 268.508,337.280 269.261,338.600 269.971 C 339.920 270.682,340.640 270.964,340.200 270.600 C 339.307 269.859,335.171 267.694,335.800 268.297 M341.200 271.297 C 341.200 271.402,342.235 272.171,343.500 273.007 C 346.941 275.282,351.050 278.745,354.300 282.111 C 355.895 283.763,357.200 284.977,357.200 284.810 C 357.200 284.227,348.534 276.136,345.975 274.330 C 342.648 271.981,341.200 271.062,341.200 271.297 M273.200 281.167 C 274.163 281.952,274.800 282.208,274.800 281.810 C 274.800 281.706,274.215 281.335,273.500 280.986 L 272.200 280.352 273.200 281.167 M275.200 282.179 C 275.200 282.289,275.740 282.659,276.400 283.000 C 277.060 283.341,277.600 283.531,277.600 283.421 C 277.600 283.311,277.060 282.941,276.400 282.600 C 275.740 282.259,275.200 282.069,275.200 282.179 M281.200 285.396 C 281.200 285.670,283.649 286.884,283.832 286.701 C 283.919 286.614,283.362 286.244,282.595 285.878 C 281.828 285.512,281.200 285.295,281.200 285.396 M359.037 287.700 C 359.849 288.965,360.588 290.000,360.679 290.000 C 360.947 290.000,359.500 287.682,358.490 286.494 C 357.979 285.892,358.225 286.435,359.037 287.700 M288.815 289.142 C 289.732 289.742,293.864 291.316,293.400 290.889 C 293.040 290.557,290.333 289.402,288.800 288.926 C 288.292 288.768,288.294 288.801,288.815 289.142 M294.054 291.387 C 294.390 291.723,297.200 292.816,297.200 292.611 C 297.200 292.501,296.548 292.138,295.751 291.805 C 294.275 291.189,293.718 291.051,294.054 291.387 M363.212 296.000 C 363.212 296.330,363.387 296.870,363.600 297.200 C 363.945 297.733,363.988 297.733,363.988 297.200 C 363.988 296.870,363.813 296.330,363.600 296.000 C 363.255 295.467,363.212 295.467,363.212 296.000 M306.400 296.990 C 306.400 297.094,306.985 297.465,307.700 297.814 L 309.000 298.448 308.000 297.633 C 307.037 296.848,306.400 296.592,306.400 296.990 M309.200 298.590 C 309.200 298.694,309.785 299.065,310.500 299.414 L 311.800 300.048 310.800 299.233 C 309.837 298.448,309.200 298.192,309.200 298.590 M314.400 301.871 C 315.170 302.489,317.060 304.160,318.600 305.586 L 321.400 308.178 319.030 305.706 C 317.726 304.347,315.836 302.675,314.830 301.991 C 313.244 300.914,313.187 300.898,314.400 301.871 M364.856 301.600 C 364.856 301.930,365.011 302.560,365.200 303.000 C 365.417 303.504,365.544 303.578,365.544 303.200 C 365.544 302.870,365.389 302.240,365.200 301.800 C 364.983 301.296,364.856 301.222,364.856 301.600 M365.888 308.200 C 366.009 309.960,366.174 311.475,366.254 311.567 C 366.529 311.880,366.306 307.403,365.987 306.200 C 365.799 305.490,365.759 306.306,365.888 308.200 M322.627 310.800 C 323.452 312.512,323.603 312.694,323.591 311.967 C 323.586 311.655,323.215 310.950,322.767 310.400 L 321.952 309.400 322.627 310.800 M323.840 313.866 C 324.208 315.399,324.400 315.544,324.400 314.290 C 324.400 313.717,324.213 313.132,323.984 312.990 C 323.711 312.821,323.662 313.123,323.840 313.866 M324.524 318.200 C 324.526 319.520,324.601 320.012,324.690 319.293 C 324.779 318.574,324.777 317.494,324.686 316.893 C 324.595 316.292,324.522 316.880,324.524 318.200 M365.864 320.150 C 365.701 321.663,365.650 322.983,365.751 323.084 C 366.014 323.347,366.510 319.050,366.319 318.153 C 366.231 317.739,366.026 318.638,365.864 320.150 M246.800 318.600 C 246.800 318.930,246.980 319.200,247.200 319.200 C 247.420 319.200,247.600 318.930,247.600 318.600 C 247.600 318.270,247.420 318.000,247.200 318.000 C 246.980 318.000,246.800 318.270,246.800 318.600 M247.867 319.867 C 247.158 320.575,247.580 357.107,248.300 357.381 C 248.861 357.595,248.901 357.548,248.500 357.144 C 247.926 356.565,247.749 320.400,248.320 320.400 C 248.496 320.400,248.896 320.625,249.209 320.900 C 249.523 321.175,249.441 320.995,249.027 320.500 C 248.178 319.482,248.225 319.508,247.867 319.867 M250.008 321.513 C 250.019 321.876,255.221 325.312,255.436 325.097 C 255.524 325.010,254.336 324.103,252.798 323.082 C 251.259 322.061,250.004 321.355,250.008 321.513 M324.046 321.667 C 324.021 322.034,323.896 322.664,323.770 323.067 C 323.552 323.762,323.563 323.763,323.997 323.087 C 324.248 322.696,324.373 322.066,324.273 321.687 C 324.111 321.068,324.088 321.066,324.046 321.667 M365.000 325.600 C 364.848 326.291,364.814 326.947,364.924 327.057 C 365.034 327.167,365.248 326.691,365.400 326.000 C 365.552 325.309,365.586 324.653,365.476 324.543 C 365.366 324.433,365.152 324.909,365.000 325.600 M256.800 325.964 C 257.350 326.414,257.980 326.783,258.200 326.785 C 258.628 326.788,257.905 326.234,256.600 325.560 C 256.069 325.285,256.136 325.421,256.800 325.964 M321.468 327.019 C 320.862 327.778,320.509 328.390,320.683 328.378 C 321.090 328.349,322.946 326.013,322.732 325.799 C 322.643 325.710,322.074 326.259,321.468 327.019 M258.800 327.009 C 258.800 327.218,261.589 328.664,263.105 329.240 C 263.698 329.465,264.068 329.535,263.927 329.394 C 263.546 329.013,258.800 326.805,258.800 327.009 M364.229 329.029 C 364.081 329.615,364.038 330.172,364.132 330.266 C 364.227 330.360,364.424 329.958,364.571 329.371 C 364.719 328.785,364.762 328.228,364.668 328.134 C 364.573 328.040,364.376 328.442,364.229 329.029 M318.989 329.584 C 318.555 330.015,317.210 330.911,316.000 331.576 C 313.594 332.899,313.528 333.263,315.916 332.040 C 317.597 331.179,320.701 328.800,320.144 328.800 C 319.943 328.800,319.423 329.153,318.989 329.584 M265.200 330.166 C 265.750 330.460,266.650 330.812,267.200 330.949 C 267.750 331.086,267.480 330.852,266.600 330.429 C 264.790 329.558,263.668 329.348,265.200 330.166 M273.600 333.200 C 273.930 333.413,274.470 333.588,274.800 333.588 C 275.333 333.588,275.333 333.545,274.800 333.200 C 274.470 332.987,273.930 332.812,273.600 332.812 C 273.067 332.812,273.067 332.855,273.600 333.200 M276.600 334.000 C 277.040 334.189,277.670 334.344,278.000 334.344 C 278.378 334.344,278.304 334.217,277.800 334.000 C 277.360 333.811,276.730 333.656,276.400 333.656 C 276.022 333.656,276.096 333.783,276.600 334.000 M279.800 334.800 C 280.240 334.989,281.050 335.138,281.600 335.132 L 282.600 335.120 281.600 334.800 C 281.050 334.624,280.240 334.474,279.800 334.468 L 279.000 334.456 279.800 334.800 M307.000 334.800 L 306.200 335.144 307.000 335.166 C 307.440 335.178,308.070 335.013,308.400 334.800 C 309.195 334.286,308.196 334.286,307.000 334.800 M284.600 335.600 C 285.260 335.768,286.520 335.904,287.400 335.903 L 289.000 335.900 287.200 335.580 C 284.757 335.145,282.870 335.160,284.600 335.600 M301.800 335.600 L 300.200 335.886 301.800 335.903 C 302.680 335.913,303.850 335.776,304.400 335.600 L 305.400 335.280 304.400 335.297 C 303.850 335.306,302.680 335.442,301.800 335.600 M358.359 343.300 C 355.027 348.585,347.641 354.805,340.700 358.172 C 337.603 359.674,336.630 360.349,338.692 359.565 C 342.757 358.019,350.010 353.163,353.572 349.600 C 356.286 346.886,360.546 341.200,359.865 341.200 C 359.765 341.200,359.088 342.145,358.359 343.300 M257.600 361.200 C 257.930 361.413,258.470 361.588,258.800 361.588 C 259.333 361.588,259.333 361.545,258.800 361.200 C 258.470 360.987,257.930 360.812,257.600 360.812 C 257.067 360.812,257.067 360.855,257.600 361.200 M260.200 362.000 C 261.396 362.514,262.395 362.514,261.600 362.000 C 261.270 361.787,260.640 361.622,260.200 361.634 L 259.400 361.656 260.200 362.000 M263.000 362.800 C 264.196 363.314,265.195 363.314,264.400 362.800 C 264.070 362.587,263.440 362.422,263.000 362.434 L 262.200 362.456 263.000 362.800 M266.400 363.600 C 267.942 364.094,268.764 364.094,268.000 363.600 C 267.670 363.387,266.950 363.227,266.400 363.246 L 265.400 363.280 266.400 363.600 M325.400 363.600 L 324.600 363.944 325.400 363.944 C 325.840 363.944,326.560 363.789,327.000 363.600 L 327.800 363.256 327.000 363.256 C 326.560 363.256,325.840 363.411,325.400 363.600 M270.200 364.400 C 270.640 364.589,271.450 364.738,272.000 364.732 L 273.000 364.720 272.000 364.400 C 271.450 364.224,270.640 364.074,270.200 364.068 L 269.400 364.056 270.200 364.400 M321.400 364.400 L 320.600 364.744 321.400 364.732 C 321.840 364.726,322.650 364.576,323.200 364.400 L 324.200 364.080 323.200 364.068 C 322.650 364.062,321.840 364.211,321.400 364.400 M275.000 365.200 C 275.660 365.368,276.650 365.505,277.200 365.505 C 278.092 365.505,278.070 365.472,277.000 365.200 C 276.340 365.032,275.350 364.895,274.800 364.895 C 273.908 364.895,273.930 364.928,275.000 365.200 M316.600 365.200 L 315.400 365.505 316.600 365.513 C 317.260 365.517,318.250 365.376,318.800 365.200 L 319.800 364.880 318.800 364.887 C 318.250 364.891,317.260 365.032,316.600 365.200 M281.400 366.001 C 282.994 366.353,286.684 366.536,286.367 366.249 C 286.275 366.165,284.760 365.996,283.000 365.873 C 280.650 365.708,280.225 365.742,281.400 366.001 M309.800 366.000 L 307.800 366.274 309.800 366.290 C 310.900 366.298,312.340 366.168,313.000 366.000 L 314.200 365.695 313.000 365.710 C 312.340 365.719,310.900 365.849,309.800 366.000 M293.521 366.699 C 295.788 366.770,299.388 366.770,301.521 366.698 C 303.655 366.626,301.800 366.568,297.400 366.568 C 293.000 366.568,291.255 366.627,293.521 366.699 " stroke="none" fill="#94bce4" fill-rule="evenodd"></path><path id="path4" d="M307.831 185.147 C 307.189 185.286,311.329 185.400,317.031 185.400 C 322.734 185.400,326.500 185.281,325.400 185.135 C 322.874 184.800,309.392 184.810,307.831 185.147 M299.627 185.975 C 299.269 186.201,300.020 186.254,301.627 186.115 C 303.042 185.992,304.275 185.826,304.367 185.746 C 304.741 185.419,300.156 185.640,299.627 185.975 M329.800 185.799 C 330.798 186.137,335.666 186.288,335.156 185.965 C 334.850 185.771,333.430 185.624,332.000 185.638 C 330.570 185.652,329.580 185.724,329.800 185.799 M294.421 186.779 C 294.046 187.016,294.470 187.065,295.621 186.918 C 296.599 186.792,297.475 186.625,297.567 186.545 C 297.942 186.219,294.955 186.440,294.421 186.779 M337.633 186.544 C 337.725 186.624,338.610 186.806,339.600 186.950 C 340.858 187.133,341.219 187.091,340.800 186.812 C 340.260 186.453,337.232 186.197,337.633 186.544 M290.400 187.600 C 289.636 188.094,290.458 188.094,292.000 187.600 L 293.000 187.280 292.000 187.246 C 291.450 187.227,290.730 187.387,290.400 187.600 M342.833 187.344 C 343.305 187.750,345.243 187.993,345.010 187.616 C 344.868 187.387,344.283 187.200,343.710 187.200 C 343.136 187.200,342.742 187.265,342.833 187.344 M287.000 188.400 C 286.708 188.873,287.099 188.873,288.200 188.400 C 288.971 188.069,288.969 188.055,288.124 188.028 C 287.642 188.013,287.136 188.180,287.000 188.400 M232.183 205.800 C 232.183 214.820,232.235 218.567,232.299 214.127 C 232.364 209.687,232.364 202.307,232.300 197.727 C 232.235 193.147,232.183 196.780,232.183 205.800 M264.629 198.811 C 263.765 199.465,263.225 199.995,263.429 199.989 C 263.807 199.978,266.765 197.621,266.400 197.622 C 266.290 197.622,265.493 198.157,264.629 198.811 M261.294 201.612 C 260.575 202.265,260.137 202.800,260.319 202.800 C 260.501 202.800,261.168 202.260,261.800 201.600 C 263.270 200.065,262.986 200.072,261.294 201.612 M258.575 204.500 L 257.400 205.800 258.700 204.625 C 259.415 203.979,260.000 203.394,260.000 203.325 C 260.000 203.016,259.670 203.288,258.575 204.500 M255.693 207.600 C 255.418 208.040,255.331 208.400,255.500 208.400 C 255.669 208.400,256.032 208.040,256.307 207.600 C 256.582 207.160,256.669 206.800,256.500 206.800 C 256.331 206.800,255.968 207.160,255.693 207.600 M252.614 212.235 C 252.241 212.804,252.005 213.338,252.089 213.422 C 252.173 213.507,252.558 213.041,252.944 212.388 C 253.806 210.928,253.548 210.809,252.614 212.235 M250.221 216.900 C 249.491 218.495,248.782 220.250,248.645 220.800 L 248.396 221.800 248.868 220.800 C 250.522 217.297,251.919 214.000,251.748 214.000 C 251.638 214.000,250.951 215.305,250.221 216.900 M310.900 217.494 C 311.945 217.576,313.655 217.576,314.700 217.494 C 315.745 217.412,314.890 217.344,312.800 217.344 C 310.710 217.344,309.855 217.412,310.900 217.494 M320.500 217.494 C 321.545 217.576,323.255 217.576,324.300 217.494 C 325.345 217.412,324.490 217.344,322.400 217.344 C 320.310 217.344,319.455 217.412,320.500 217.494 M304.400 218.395 C 303.991 218.655,304.310 218.699,305.400 218.532 C 307.377 218.229,307.714 217.998,306.167 218.006 C 305.525 218.009,304.730 218.184,304.400 218.395 M329.105 218.283 C 329.602 218.379,330.322 218.375,330.705 218.275 C 331.087 218.175,330.680 218.096,329.800 218.101 C 328.920 218.105,328.607 218.187,329.105 218.283 M301.600 219.218 C 301.162 219.515,301.324 219.552,302.200 219.356 C 303.671 219.027,303.990 218.798,302.967 218.806 C 302.545 218.809,301.930 218.995,301.600 219.218 M333.233 218.947 C 333.325 219.028,334.120 219.204,335.000 219.338 C 336.115 219.507,336.358 219.471,335.800 219.219 C 335.032 218.871,332.890 218.644,333.233 218.947 M336.833 219.744 C 336.925 219.823,337.540 220.008,338.200 220.156 C 339.076 220.352,339.238 220.315,338.800 220.018 C 338.260 219.653,336.432 219.398,336.833 219.744 M248.046 222.467 C 248.021 222.834,247.896 223.464,247.770 223.867 C 247.552 224.562,247.563 224.563,247.997 223.887 C 248.248 223.496,248.373 222.866,248.273 222.487 C 248.111 221.868,248.088 221.866,248.046 222.467 M293.985 223.229 L 292.600 224.458 294.100 223.381 C 295.426 222.430,295.857 222.000,295.485 222.000 C 295.422 222.000,294.747 222.553,293.985 223.229 M182.000 293.680 C 181.890 332.994,181.935 365.025,182.101 364.859 C 182.267 364.693,182.357 332.527,182.301 293.379 L 182.200 222.200 182.000 293.680 M247.249 225.800 C 247.216 226.240,247.096 227.050,246.983 227.600 L 246.777 228.600 247.206 227.619 C 247.442 227.079,247.561 226.269,247.472 225.819 C 247.313 225.021,247.307 225.021,247.249 225.800 M246.203 234.100 C 246.052 236.355,246.080 239.730,246.265 241.600 C 246.559 244.558,246.604 244.024,246.611 237.500 C 246.621 228.857,246.578 228.494,246.203 234.100 M292.993 245.193 C 293.848 246.069,294.623 246.711,294.714 246.619 C 294.919 246.414,292.140 243.600,291.732 243.600 C 291.570 243.600,292.137 244.317,292.993 245.193 M247.062 247.800 C 247.196 248.680,247.372 249.475,247.453 249.567 C 247.756 249.910,247.529 247.768,247.181 247.000 C 246.929 246.442,246.893 246.685,247.062 247.800 M295.359 247.134 C 295.492 247.349,296.520 248.186,297.642 248.992 C 298.765 249.799,299.574 250.282,299.441 250.066 C 299.308 249.851,298.280 249.014,297.158 248.208 C 296.035 247.401,295.226 246.918,295.359 247.134 M247.844 251.400 C 248.173 252.871,248.402 253.190,248.394 252.167 C 248.391 251.745,248.205 251.130,247.982 250.800 C 247.685 250.362,247.648 250.524,247.844 251.400 M300.611 250.939 C 302.519 252.241,303.600 252.878,303.600 252.699 C 303.600 252.445,300.504 250.400,300.120 250.400 C 299.956 250.400,300.177 250.642,300.611 250.939 M248.400 253.329 C 248.400 253.832,250.500 258.833,250.649 258.685 C 250.731 258.602,250.331 257.379,249.759 255.967 C 248.747 253.466,248.400 252.793,248.400 253.329 M251.048 259.800 C 251.387 260.717,253.224 263.600,253.470 263.600 C 253.663 263.600,251.630 259.981,251.110 259.400 C 250.896 259.160,250.871 259.320,251.048 259.800 M254.391 265.188 C 254.857 265.841,255.442 266.502,255.691 266.656 C 255.941 266.811,255.641 266.276,255.025 265.468 C 253.688 263.715,253.184 263.492,254.391 265.188 M328.869 264.202 C 329.003 264.337,330.528 265.168,332.257 266.050 C 333.985 266.932,335.220 267.473,335.000 267.254 C 334.567 266.820,330.692 264.742,329.412 264.257 C 328.979 264.092,328.734 264.068,328.869 264.202 M337.600 268.820 C 338.987 269.761,339.778 270.035,338.800 269.236 C 338.250 268.786,337.620 268.417,337.400 268.415 C 337.180 268.413,337.270 268.596,337.600 268.820 M267.607 277.937 C 267.616 278.274,271.627 280.907,271.827 280.706 C 271.910 280.624,270.992 279.907,269.789 279.115 C 268.585 278.322,267.603 277.792,267.607 277.937 M353.600 280.600 C 355.017 282.030,356.267 283.200,356.377 283.200 C 356.487 283.200,355.417 282.030,354.000 280.600 C 352.583 279.170,351.333 278.000,351.223 278.000 C 351.113 278.000,352.183 279.170,353.600 280.600 M273.800 281.914 C 274.020 282.141,275.100 282.815,276.200 283.413 C 277.300 284.010,278.020 284.313,277.800 284.086 C 277.580 283.859,276.500 283.185,275.400 282.587 C 274.300 281.990,273.580 281.687,273.800 281.914 M304.400 296.564 C 304.400 296.799,308.515 298.819,308.673 298.661 C 308.816 298.517,305.045 296.400,304.646 296.400 C 304.511 296.400,304.400 296.474,304.400 296.564 M364.428 298.276 C 364.518 299.315,365.144 300.196,365.172 299.324 C 365.187 298.842,365.020 298.336,364.800 298.200 C 364.580 298.064,364.413 298.098,364.428 298.276 M310.600 299.872 C 311.313 300.566,316.400 304.047,316.400 303.840 C 316.400 303.730,315.275 302.849,313.900 301.882 C 311.246 300.015,309.914 299.204,310.600 299.872 M365.468 302.200 C 365.771 304.177,366.002 304.514,365.994 302.967 C 365.991 302.325,365.816 301.530,365.605 301.200 C 365.345 300.791,365.301 301.110,365.468 302.200 M318.012 305.398 C 318.950 306.672,319.600 307.286,319.600 306.898 C 319.600 306.701,319.110 306.103,318.512 305.570 C 317.714 304.858,317.581 304.813,318.012 305.398 M366.542 309.800 C 366.541 311.780,366.608 312.640,366.692 311.712 C 366.776 310.784,366.777 309.164,366.695 308.112 C 366.612 307.060,366.543 307.820,366.542 309.800 M320.825 308.600 C 320.825 308.820,321.090 309.349,321.413 309.776 C 321.736 310.204,322.000 310.373,322.000 310.153 C 322.000 309.933,321.736 309.404,321.413 308.976 C 321.090 308.549,320.825 308.380,320.825 308.600 M366.540 318.800 C 366.540 320.670,366.609 321.435,366.693 320.500 C 366.777 319.565,366.777 318.035,366.693 317.100 C 366.609 316.165,366.540 316.930,366.540 318.800 M324.093 318.400 C 324.093 319.170,324.175 319.485,324.276 319.100 C 324.376 318.715,324.376 318.085,324.276 317.700 C 324.175 317.315,324.093 317.630,324.093 318.400 M246.184 318.025 C 246.040 318.259,246.209 318.768,246.561 319.157 C 247.127 319.782,247.200 321.986,247.200 338.483 C 247.200 355.747,247.251 357.141,247.900 357.632 C 248.496 358.082,248.525 358.078,248.100 357.601 C 247.564 356.999,247.330 319.600,247.862 319.600 C 248.006 319.600,248.726 320.059,249.462 320.620 C 250.198 321.182,250.800 321.490,250.800 321.307 C 250.800 321.123,250.249 320.647,249.576 320.250 C 248.903 319.852,248.187 319.093,247.986 318.563 C 247.607 317.567,246.645 317.280,246.184 318.025 M247.600 318.849 C 247.600 319.558,247.501 319.616,247.000 319.200 C 246.670 318.926,246.400 318.544,246.400 318.351 C 246.400 318.158,246.670 318.000,247.000 318.000 C 247.345 318.000,247.600 318.361,247.600 318.849 M365.664 325.067 C 365.629 325.764,365.496 326.664,365.370 327.067 C 365.153 327.759,365.165 327.760,365.594 327.091 C 365.845 326.702,365.977 325.802,365.889 325.091 L 365.728 323.800 365.664 325.067 M319.400 328.676 C 318.300 329.687,317.940 330.147,318.600 329.697 C 319.724 328.930,321.944 326.778,321.570 326.818 C 321.476 326.828,320.500 327.664,319.400 328.676 M364.752 329.113 C 364.621 329.907,364.679 330.281,364.901 330.059 C 365.103 329.857,365.201 329.267,365.119 328.746 C 364.993 327.945,364.937 328.002,364.752 329.113 M315.665 331.192 C 314.002 332.120,313.707 332.402,314.660 332.151 C 315.337 331.974,317.662 330.399,317.200 330.432 C 317.090 330.440,316.399 330.781,315.665 331.192 M272.651 332.378 C 273.057 332.745,275.860 333.326,275.503 332.969 C 275.371 332.838,274.597 332.580,273.783 332.396 C 272.968 332.212,272.459 332.204,272.651 332.378 M307.824 334.050 C 306.957 334.253,306.147 334.521,306.024 334.645 C 305.701 334.971,308.886 334.362,309.600 333.961 C 310.339 333.546,309.872 333.570,307.824 334.050 M279.233 334.144 C 279.325 334.224,280.210 334.396,281.200 334.527 C 282.402 334.686,282.734 334.647,282.200 334.410 C 281.436 334.072,278.886 333.843,279.233 334.144 M283.633 334.945 C 283.725 335.025,285.060 335.192,286.600 335.316 C 288.304 335.453,289.009 335.412,288.400 335.211 C 287.422 334.887,283.304 334.658,283.633 334.945 M301.000 335.215 C 300.244 335.418,300.762 335.454,302.400 335.315 C 303.830 335.193,305.075 335.028,305.167 334.947 C 305.470 334.680,302.222 334.889,301.000 335.215 M352.600 350.701 C 350.620 352.606,349.720 353.602,350.600 352.914 C 352.181 351.678,356.747 347.183,356.386 347.218 C 356.284 347.228,354.580 348.795,352.600 350.701 M262.800 363.182 C 263.130 363.405,263.745 363.591,264.167 363.594 C 265.190 363.602,264.871 363.373,263.400 363.044 C 262.524 362.848,262.362 362.885,262.800 363.182 M329.000 363.200 C 328.229 363.531,328.231 363.545,329.076 363.572 C 329.558 363.587,330.064 363.420,330.200 363.200 C 330.492 362.727,330.101 362.727,329.000 363.200 M266.000 363.994 C 266.330 364.211,267.035 364.391,267.567 364.394 C 268.851 364.402,268.525 364.175,266.800 363.858 C 265.815 363.677,265.578 363.718,266.000 363.994 M325.800 364.000 C 324.693 364.282,324.677 364.309,325.600 364.347 C 326.150 364.369,326.870 364.213,327.200 364.000 C 327.881 363.560,327.529 363.560,325.800 364.000 M269.621 364.821 C 270.155 365.160,273.142 365.381,272.767 365.055 C 272.675 364.975,271.799 364.808,270.821 364.682 C 269.670 364.535,269.246 364.584,269.621 364.821 M322.000 364.800 C 320.616 365.091,320.614 365.095,321.800 365.141 C 322.460 365.167,323.270 365.013,323.600 364.800 C 324.266 364.370,324.045 364.370,322.000 364.800 M274.446 365.637 C 274.751 365.830,275.810 365.976,276.800 365.962 C 278.933 365.932,278.555 365.740,275.846 365.476 C 274.642 365.359,274.105 365.421,274.446 365.637 M317.000 365.600 L 315.000 365.874 316.800 365.931 C 317.790 365.962,318.870 365.813,319.200 365.600 C 319.530 365.387,319.620 365.238,319.400 365.269 C 319.180 365.300,318.100 365.449,317.000 365.600 M280.400 366.423 C 281.357 366.708,288.226 366.882,287.400 366.601 C 287.180 366.526,285.290 366.388,283.200 366.295 C 281.110 366.202,279.850 366.259,280.400 366.423 M308.500 366.691 C 309.325 366.778,310.675 366.778,311.500 366.691 C 312.325 366.605,311.650 366.534,310.000 366.534 C 308.350 366.534,307.675 366.605,308.500 366.691 M289.500 367.089 C 290.215 367.178,291.385 367.178,292.100 367.089 C 292.815 367.001,292.230 366.928,290.800 366.928 C 289.370 366.928,288.785 367.001,289.500 367.089 M302.707 367.090 C 303.426 367.179,304.506 367.177,305.107 367.086 C 305.708 366.995,305.120 366.922,303.800 366.924 C 302.480 366.926,301.988 367.001,302.707 367.090 M296.307 367.490 C 297.026 367.579,298.106 367.577,298.707 367.486 C 299.308 367.395,298.720 367.322,297.400 367.324 C 296.080 367.326,295.588 367.401,296.307 367.490 " stroke="none" fill="#5a94d4" fill-rule="evenodd"></path></g></svg>